PathFileType	4	(X/Y/Z)	8_2_62_p1_0-187.trc
DataRate	CameraRate	NumFrames	NumMarkers	Units	OrigDataRate	OrigDataStartFrame	OrigNumFrames
59.0	59.0	6	27	m	59.0	47	188
Frame#	Time	RHip			RKnee			RAnkle			RBigToe			RSmallToe			RHeel			LHip			LKnee			LAnkle			LBigToe			LSmallToe			LHeel			Neck			Head			Nose			RShoulder			RElbow			RWrist			RThumb			RIndex			RPinky			LShoulder			LElbow			LWrist			LThumb			LIndex			LPinky			
		X1	Y1	Z1	X2	Y2	Z2	X3	Y3	Z3	X4	Y4	Z4	X5	Y5	Z5	X6	Y6	Z6	X7	Y7	Z7	X8	Y8	Z8	X9	Y9	Z9	X10	Y10	Z10	X11	Y11	Z11	X12	Y12	Z12	X13	Y13	Z13	X14	Y14	Z14	X15	Y15	Z15	X16	Y16	Z16	X17	Y17	Z17	X18	Y18	Z18	X19	Y19	Z19	X20	Y20	Z20	X21	Y21	Z21	X22	Y22	Z22	X23	Y23	Z23	X24	Y24	Z24	X25	Y25	Z25	X26	Y26	Z26	X27	Y27	Z27	
47	0.7966101694915254	0.25323497118667854	0.5496502734516409	0.8090108555529945	0.2552006204424789	0.716401477793178	1.3084163974789569	0.23127878450015246	0.9113395319300128	1.7275325916450772	0.2089512007103371	0.7020971438427052	1.7887446596855314	0.26712358713997836	0.7709000370781857	1.800530941141504	0.2228532308344162	0.9686016479171327	1.7641518292410725	0.03847029298847134	0.5498494727223651	0.8052138247837785	0.032408633214241124	0.7003710665715189	1.2874827333832155	0.02941111445497268	0.8520759165007185	1.701081638703094	0.057363352149905254	0.7163430638182027	1.7990815167219454	-0.006787668980738477	0.7348814521828778	1.765256458108574	0.05729723978409089	0.969998833207881	1.7613555791012174	0.1625339306764676	0.4296541411406686	0.22988720753758835	0.18727435112817736	0.2920181361203916	0.007493478406708669	0.1553234026897651	0.25917710150492634	0.14744417216645786	0.32676692890888304	0.42646005620077043	0.37065184446543353	0.37893014382873647	0.5527332188423673	0.6465442794573033	0.3793715880531339	0.5701832418872691	0.9150377812706322	0.3201239437358407	0.5321490628496928	1.0482475982405892	0.3438331943964427	0.5343878157002586	1.0713209795424665	0.3911187461669046	0.6439108930122963	1.0863949478954262	-0.025467710805120437	0.4720198496223386	0.3430052948868976	-0.052522413883746615	0.5610730502398429	0.6213199563598902	-0.09057039833141037	0.5462476154026538	0.8714095792858313	-0.08740956453424195	0.5427154727455825	0.9973683486347721	-0.12418095418298088	0.5424776259982961	1.0122385988870402	-0.1567141552522779	0.6099318942980122	1.008764113472646
48	0.8135593220338984	0.24508893526172534	0.5354923137530748	0.8079544579920536	0.2593449961863302	0.7178979491952938	1.3086102058116351	0.23564838304918603	0.9255144962475539	1.736893533152344	0.20899933102908086	0.7016644299773008	1.788372936647316	0.27061273690131504	0.7523313905263131	1.7933191390701868	0.21757835351828422	0.9688596382211618	1.7693500791060988	0.03848476628791604	0.5499452250253811	0.8051333657809987	0.032455528137881565	0.700230646574096	1.2872443090738737	0.03562856221790181	0.8715553637154071	1.7120341230316853	0.056881931298397234	0.7177806910250424	1.7954925527901215	-0.006973859764356951	0.7358659867129936	1.7610514443593277	0.05242452153816809	0.9924043243637658	1.7734683099687334	0.16258731395785875	0.4296866057585259	0.22993098055716804	0.1872372699285516	0.2929229944957778	0.01068244147405113	0.15892569107270552	0.25995228810693	0.1474429084739417	0.32684554582133496	0.42641495466902496	0.3706537293692697	0.37886235069578555	0.5525602896598847	0.6466545711459876	0.3787353406794873	0.5676119841912535	0.9115156650345497	0.3191197638327311	0.5325624554759081	1.051854943237967	0.3397867227534499	0.534479974770545	1.0716871747853394	0.39013944366629716	0.6454927187751454	1.089954243535941	-0.021889344467389577	0.4743695389217224	0.3428587038182648	-0.04867308282773276	0.5638485246276046	0.6217281666379347	-0.08766742599764742	0.5606856664161891	0.8684239964905154	-0.0768406930190677	0.5572706050062104	1.0026444949906255	-0.11016965177059519	0.5338399313481816	1.0110067795057853	-0.14873808762393054	0.6106847528785033	1.0082624446083537
49	0.8305084745762712	0.24505058546418562	0.535463248077119	0.8079484928965419	0.2593742938497207	0.7175631718173772	1.3085212074545682	0.2354963130699353	0.926627273576903	1.7329298338095185	0.20542312834593174	0.6882962891476865	1.7832530940649851	0.2714468521861935	0.7427345483132943	1.7897182662559972	0.21753947011414718	0.9688863698652257	1.768896741783041	0.04133395338015571	0.5634865151209133	0.8061248629244616	0.03168144324693246	0.6982786424901777	1.2786166665445275	0.035658596601869985	0.8716327777577174	1.7120741433550606	0.05669995304271941	0.71751194480187	1.7952416919821168	-0.006989977107362785	0.7359507856647012	1.7610072151017164	0.058334077352678704	0.9737100142366466	1.7674046419139873	0.16234783242910475	0.4304074535647036	0.2332134805844185	0.18419692673738655	0.2822293203357908	0.012932332005687863	0.16257679236880676	0.2511685759485573	0.15544290487170712	0.3268259447294623	0.42619995341334577	0.3706480389154246	0.37878934431598865	0.5524300959759371	0.6465534078455082	0.3786178656820563	0.5680991558846271	0.911752025503263	0.3189451509035051	0.5320443865434953	1.055395562952915	0.33212494027177397	0.5476241874461389	1.0769812238894265	0.38642300468162366	0.6338307564788257	1.0889267574603827	-0.02181297937107047	0.47458233603037625	0.34292572399746835	-0.04850556316929784	0.5635257188664211	0.6215187669453204	-0.08275231761026948	0.5620049150554763	0.8649945386980238	-0.07501403239727837	0.5673174902463479	1.000992755146165	-0.10927081378360991	0.5340806126621507	1.0074268306749568	-0.14393739380545537	0.6129873821293791	1.0089032099657618
50	0.847457627118644	0.24884470924443644	0.548349804847264	0.8087524003713662	0.25954327751915823	0.7178671116413096	1.3088280420585359	0.23553009202881323	0.9266036684276844	1.7328201108622043	0.2054691223289427	0.6886744938229502	1.783538010476264	0.26797986593498396	0.7610948407187839	1.796818054402238	0.21889174426218028	0.9670930012545952	1.7634158576709538	0.04143072101003124	0.5636863375106677	0.8061283855302221	0.032358357851229036	0.7012369845490609	1.2832278692319288	0.032334057946545584	0.8690062936807033	1.7023272786282737	0.056759338946605516	0.7175698135670835	1.7953116788096515	-0.0068882618391595705	0.7359135047530606	1.7609420664676718	0.058389395025511756	0.9735311121740571	1.7669435354942968	0.16228300011893032	0.43041371471430934	0.23335143725595955	0.18418989963211646	0.282250713377102	0.012945926698830951	0.15899590251442838	0.25020572497390753	0.1556471290820932	0.32679324820442074	0.4261590640344652	0.3706232029514468	0.3743715100285659	0.5517196779169927	0.6466089955836638	0.37145759574949344	0.5459422372950907	0.9128341221910186	0.31874885130645225	0.5322951692350386	1.0554691476061038	0.33192937467590045	0.5472787223038139	1.0769381642924707	0.37845978934893265	0.6216846024014862	1.090520659867423	-0.025187156015449717	0.4718424855257866	0.343084988442535	-0.04839568655342529	0.5633232576645969	0.62505443971073	-0.07856687657019595	0.5897193587118612	0.875314542648675	-0.07256426908988388	0.5798165924926567	1.0030615874988233	-0.10269671366053842	0.5530985291186223	1.0131674202853984	-0.130325796583356	0.5972578864936945	1.002934456229709
51	0.864406779661017	0.24890988180767357	0.5485578027371742	0.8089306447606412	0.2594710791333879	0.7179717785317967	1.30890992068246	0.2313134795769647	0.9109933227020456	1.7278189220772733	0.2053245783641768	0.6880283016149825	1.7830959166587044	0.267407704371164	0.7589930975456339	1.7958244961434695	0.2199513256830397	0.9703556355519205	1.7695188724814785	0.041549851285840156	0.5634442375646519	0.8100618805620949	0.03224507994638391	0.7012333233589533	1.2835542868707277	0.02788260855122638	0.8545671769169776	1.7022681416867074	0.05608766506905183	0.7140586946596256	1.7893112498513206	-0.008286124814957873	0.7370170076095732	1.765590681054945	0.058324829434967564	0.9735253908642937	1.7670949188953595	0.1622818463731912	0.4305115558259508	0.23340016199314415	0.18423187322449414	0.2823438641381344	0.012943464255956468	0.15900070026713461	0.2503841995066792	0.15869168915442164	0.32687319291192	0.42626978815378974	0.3706698885019069	0.37431450405957317	0.5520933453296938	0.6465632362360546	0.36837962321182344	0.5605861357246235	0.9144821619063914	0.31869394460002226	0.5312090248409064	1.0591461437525815	0.32812595076697326	0.5465414227694826	1.077060225373031	0.378096526288051	0.6225248673263948	1.0905264208611596	-0.025078263506565647	0.4721945506040228	0.3431881132375085	-0.04460176807817912	0.5658252347250996	0.625304646126902	-0.07826222422008836	0.5922374939620677	0.8799141707616653	-0.0675188003035537	0.5875405000077946	1.0102525526570496	-0.09307859103204447	0.5447372880483334	1.0159438541150903	-0.12102197008765081	0.604306855092187	1.0121813222325866
52	0.8813559322033898	0.248930053318799	0.5488227539643041	0.8089653581716455	0.2594561307222899	0.7179556926838639	1.3088574956979742	0.23546673948502117	0.9265305970678082	1.7328215517993484	0.20541390945415372	0.6884059804418009	1.7832858969466603	0.2713639381125345	0.7427341756944014	1.7896826150999277	0.21882324451257407	0.9670264183684074	1.7634262508655494	0.04148629288127883	0.5640721350285569	0.8063004518379626	0.03241780835764033	0.7008772967077843	1.2876463337729396	0.031027923313491183	0.8702688131543501	1.707280131174078	0.05693115807611654	0.7177446281513153	1.7954789744570139	-0.006945518822471178	0.7359509947012124	1.7610923101358107	0.058393342577487795	0.9736065431747503	1.7669104063313739	0.16224364601929464	0.430537964142915	0.23343559071461822	0.18830328398708363	0.28354918492555553	0.012798413799555626	0.15892447954353905	0.25044500637806394	0.15873113140564835	0.3268061430407615	0.42618064299051245	0.37066316364529817	0.3672546388810651	0.553450017349571	0.6464008740082575	0.364553739328717	0.548206103324358	0.9131204086722066	0.3183443448218078	0.5305115494973343	1.0590861769360183	0.3238584215272428	0.5339268474277055	1.075424209661373	0.3738627903587417	0.609506740245907	1.0885180353321307	-0.02246651317508131	0.4847743744452635	0.3421819833519929	-0.037758825046111666	0.5835379074399403	0.6292842426838261	-0.07302969482658232	0.5790510477173938	0.8786344082434914	-0.06520991588218021	0.5995013499931438	1.011840539079842	-0.08983271048740482	0.5585930388630777	1.0212529736814604	-0.10818381261508034	0.6067567657922349	1.0127043078900355
